<svg width="463" height="463" xmlns="http://www.w3.org/2000/svg" xmlns:xlink="http://www.w3.org/1999/xlink" xml:space="preserve" overflow="hidden"><g transform="translate(-385 -195)"><path d="M495.927 590.479 495.927 262.521 616.5 262.521 616.5 363.802 737.073 363.802 737.073 590.479 495.927 590.479ZM645.438 274.578 705.724 334.865 645.438 334.865 645.438 274.578ZM645.438 233.583 466.99 233.583 466.99 619.417 766.01 619.417 766.01 339.688 645.438 233.583Z"/><path d="M524.865 412.031 708.135 412.031 708.135 431.323 524.865 431.323Z"/><path d="M524.865 373.448 587.562 373.448 587.562 392.74 524.865 392.74Z"/><path d="M524.865 450.615 708.135 450.615 708.135 469.906 524.865 469.906Z"/><path d="M524.865 489.198 708.135 489.198 708.135 508.49 524.865 508.49Z"/><path d="M524.865 527.781 708.135 527.781 708.135 547.073 524.865 547.073Z"/></g></svg>