<svg width="96" height="96" xmlns="http://www.w3.org/2000/svg" xmlns:xlink="http://www.w3.org/1999/xlink" xml:space="preserve" overflow="hidden"><g transform="translate(-592 -372)"><path d="M630 436 650 436C651.7 436 653 437.3 653 439 653 440.7 651.7 442 650 442L630 442C628.3 442 627 440.7 627 439 627 437.3 628.3 436 630 436Z"/><path d="M630 446 650 446C651.7 446 653 447.3 653 449 653 450.7 651.7 452 650 452L630 452C628.3 452 627 450.7 627 449 627 447.3 628.3 446 630 446Z"/><path d="M633.5 456C633.8 459.4 636.6 462 640 462 643.4 462 646.2 459.4 646.5 456L633.5 456Z"/><path d="M640 378C640 378 640 378 640 378 640 378 640 378 640 378 625.8 378.1 614.3 389.5 614 403.7L614 404.6C614.1 407.7 614.7 410.7 615.8 413.6 616.9 416.3 618.4 418.8 620.3 421 622.7 423.6 625.3 428.7 626.4 430.9 626.7 431.6 627.4 432 628.2 432L651.8 432C652.6 432 653.3 431.6 653.6 430.9 654.7 428.7 657.3 423.6 659.7 421 661.6 418.8 663.2 416.3 664.2 413.6 665.3 410.7 665.9 407.7 666 404.6L666 403.7C665.7 389.5 654.2 378.1 640 378ZM660 404.5C659.9 406.9 659.4 409.3 658.6 411.5 657.8 413.5 656.7 415.4 655.2 417 652.9 419.8 650.9 422.8 649.4 426L640 426 630.7 426C629.1 422.8 627.1 419.8 624.9 417 623.5 415.4 622.3 413.5 621.5 411.5 620.6 409.3 620.2 406.9 620.1 404.5L620.1 403.7C620.3 392.8 629.2 384 640.1 383.9L640.1 383.9 640.1 383.9C640.1 383.9 640.1 383.9 640.1 383.9 640.1 383.9 640.1 383.9 640.1 383.9L640.1 383.9 640.1 383.9C651 384 659.9 392.7 660.1 403.7L660.1 404.5Z"/></g></svg>